
<svg id="Capa_1" enable-background="new 0 0 512.054 512.054" height="100" viewBox="0 0 512.054 512.054" width="100" xmlns="http://www.w3.org/2000/svg"><g><g><path d="m482.548 115.435-2.751-54.008-50.522-19.272-33.933-42.128-52.214 14.147-51.715-14.011-41.324 46.428 41.299 211.052 188.454 1.526 2.706-53.13 29.506-45.301z" fill="#ffe14d"/><path d="m341.785 70.783c-28.079 0-54.447 12.429-72.342 34.099l33.834 98.079 83.824 43.723c29.893-16.526 48.464-47.992 48.464-82.121.001-51.71-42.069-93.78-93.78-93.78z" fill="#ff9"/></g><g><g><path d="m116.819 119.226v17.917c-65.121 4.181-116.819 58.491-116.819 124.649 0 47.317 26.229 90.021 68.452 111.447l27.495 13.459h109.663l39.539-189.192-39.539-167.943c-49.04.477-88.791 40.512-88.791 89.663z" fill="#5ed8d3"/><path d="m490.162 260.246c-13.963-13.872-32.459-21.496-52.082-21.496-.142 0-.285 0-.427.001l-42.863.117.145-14.017c.245-23.654-8.807-45.92-25.486-62.695-16.582-16.678-38.634-25.848-62.136-25.848-.137 0-.274 0-.412.001l-10.73.049v-17.131c0-49.447-40.228-89.675-89.675-89.675-.296 0-.589.008-.884.011v357.136h232.415c19.772 0 38.357-7.703 52.331-21.69 13.975-13.987 21.661-32.579 21.643-52.351-.019-19.827-7.775-38.44-21.839-52.412z" fill="#3ab8b9"/></g><g><g><g><path d="m204.787 221.119c-75.069 0-135.925 60.856-135.925 135.925s60.856 135.925 135.925 135.925c.275 0 .548-.009.823-.01l56.938-135.005-56.938-136.825c-.274-.001-.547-.01-.823-.01z" fill="#fff5f5"/><path d="m340.712 357.044c0-74.794-60.412-135.471-135.102-135.915v271.829c74.69-.443 135.102-61.12 135.102-135.914z" fill="#e6e9f2"/></g><g><path d="m190.61 294.77v67.992l-30.685 25.383 19.121 23.117 26.564-21.975 7.5-47.259-7.5-47.258z" fill="#143d66"/><path d="m190.61 454.272v26.845c-56.447-6.833-101.331-51.717-108.164-108.164h26.846v-30h-26.846c6.833-56.447 51.717-101.331 108.164-108.164v26.845h15l7.5-29.923-7.5-27.832c-84.956 0-154.073 69.117-154.073 154.073s69.117 154.073 154.073 154.073l10.742-20.813-10.742-36.942h-15z" fill="#7d89e5"/></g><path d="m220.61 294.77h-15v94.517l15-12.408z" fill="#102840"/><path d="m205.61 203.881v57.754h15v-26.845c56.447 6.833 101.331 51.717 108.164 108.164h-26.846v30h26.846c-6.833 56.447-51.717 101.33-108.164 108.164v-26.845h-15v57.754c84.956 0 154.073-69.117 154.073-154.073s-69.116-154.073-154.073-154.073z" fill="#706bef"/></g></g></g></g></svg>